<?xml version="1.0" encoding="UTF-8" standalone="no"?><!DOCTYPE svg PUBLIC "-//W3C//DTD SVG 1.1//EN" "http://www.w3.org/Graphics/SVG/1.1/DTD/svg11.dtd"><svg width="100%" height="100%" viewBox="0 0 29 8" version="1.1" xmlns="http://www.w3.org/2000/svg" xmlns:xlink="http://www.w3.org/1999/xlink" xml:space="preserve" xmlns:serif="http://www.serif.com/" style="fill-rule:evenodd;clip-rule:evenodd;stroke-linejoin:round;stroke-miterlimit:2;"><g><path d="M8.831,6.938l0,-6.676l6.671,-0l0,6.676l-2.222,0l-0.004,-3.406c-0.037,-0.581 -0.52,-1.04 -1.109,-1.04c-0.59,-0 -1.072,0.459 -1.11,1.04l-0.003,3.406l-2.223,0Z" style="fill:#cac09c;"/><path d="M5.494,3.529c-0.038,-0.58 -0.52,-1.039 -1.11,-1.039l-3.335,-0l-0,-2.226l6.671,-0l-0,3.41l-0.001,-0c-0.039,1.809 -1.517,3.264 -3.335,3.264c-1.842,0 -3.335,-1.494 -3.335,-3.337l2.223,-0c0,0.614 0.498,1.112 1.112,1.112c0.59,0 1.072,-0.459 1.11,-1.039l-0,-0.145Z" style="fill:#cac09c;"/><path d="M16.613,6.938l0,-6.671l2.226,0l0,3.407c0.037,0.563 0.493,1.012 1.059,1.038l0.102,0c0.591,-0.027 1.061,-0.514 1.061,-1.111l-0.005,-3.334l2.253,0l-0.003,3.334c0,0.597 0.471,1.084 1.061,1.111l0.103,0c0.555,-0.025 1.004,-0.458 1.055,-1.007l0,-3.438l2.226,0l0,6.671l-11.138,0Z" style="fill:#cac09c;"/></g></svg>